# xmcd
#
# Track frame offsets:
#	150
#	13987
#	30075
#	48587
#	66192
#	81370
#	97812
#	110982
#	126130
#	142950
#
# Disc length: 2153 seconds
#
# Revision: 1
# Processed by: cddbd v1.5.2PL0 Copyright (c) Steve Scherf et al.
# Submitted via: audiograbber 1.83.01
#
DISCID=8308670a
DTITLE=BERIT - Kultaiset vuodet
DYEAR=1988
DGENRE=
TTITLE0=Katse vaan
TTITLE1=Kuin tuuli aavikon
TTITLE2=Vieläkö muistat
TTITLE3=Juostaan tuuleen
TTITLE4=Kultaiset vuodet
TTITLE5=Suvi ja Suomi
TTITLE6=Laulujoutsenten maa
TTITLE7=Kun tummat saapuu taivaaseen
TTITLE8=Kellot
TTITLE9=Keuruuselän sini
EXTD=
EXTT0=
EXTT1=
EXTT2=
EXTT3=
EXTT4=
EXTT5=
EXTT6=
EXTT7=
EXTT8=
EXTT9=
PLAYORDER=
